<?xml version="1.0" encoding="UTF-8" standalone="no"?>
<svg
   xmlns:dc="http://purl.org/dc/elements/1.1/"
   xmlns:cc="http://creativecommons.org/ns#"
   xmlns:rdf="http://www.w3.org/1999/02/22-rdf-syntax-ns#"
   xmlns:svg="http://www.w3.org/2000/svg"
   xmlns="http://www.w3.org/2000/svg"
   xmlns:sodipodi="http://sodipodi.sourceforge.net/DTD/sodipodi-0.dtd"
   xmlns:inkscape="http://www.inkscape.org/namespaces/inkscape"
   id="emoji"
   viewBox="0 0 72 72"
   version="1.1"
   sodipodi:docname="computer.svg"
   inkscape:version="0.92.4 (5da689c313, 2019-01-14)">
  <metadata
     id="metadata18">
    <rdf:RDF>
      <cc:Work
         rdf:about="">
        <dc:format>image/svg+xml</dc:format>
        <dc:type
           rdf:resource="http://purl.org/dc/dcmitype/StillImage" />
      </cc:Work>
    </rdf:RDF>
  </metadata>
  <defs
     id="defs16" />
  <sodipodi:namedview
     pagecolor="#ffffff"
     bordercolor="#666666"
     borderopacity="1"
     objecttolerance="10"
     gridtolerance="10"
     guidetolerance="10"
     inkscape:pageopacity="0"
     inkscape:pageshadow="2"
     inkscape:window-width="1912"
     inkscape:window-height="1035"
     id="namedview14"
     showgrid="false"
     inkscape:zoom="3.2777778"
     inkscape:cx="36"
     inkscape:cy="36"
     inkscape:window-x="0"
     inkscape:window-y="41"
     inkscape:window-maximized="0"
     inkscape:current-layer="emoji" />
  <g
     id="line"
     style="stroke:#ffffff">
    <path
       fill="none"
       stroke="#000000"
       stroke-width="2"
       stroke-linecap="round"
       stroke-linejoin="round"
       stroke-miterlimit="10"
       d="M63.1941,56H9.2323c-2.8026,0-5.0746-2.272-5.0746-5.0746V16.033c0-2.8026,2.272-5.0746,5.0746-5.0746h53.9618 c2.8026,0,5.0746,2.272,5.0746,5.0746v34.8924C68.2687,53.728,65.9967,56,63.1941,56z"
       id="path2"
       style="stroke:#ffffff" />
    <path
       fill="none"
       stroke="#000000"
       stroke-width="0.9187"
       stroke-linecap="round"
       stroke-linejoin="round"
       stroke-miterlimit="10"
       d="M68.2687,47.5629c0,0,0.1688,4.8556-1.5499,6.8305s-0.7221,1.6035-3.5247,1.6035H9.2323c-2.8026,0-4.164-1.852-4.164-2.4434 l-0.9106-5.9906"
       id="path4"
       style="stroke:#ffffff" />
    <path
       fill="none"
       stroke="#000000"
       stroke-width="2"
       stroke-linecap="round"
       stroke-linejoin="round"
       stroke-miterlimit="10"
       d="M63.1941,56H9.2323c-2.8026,0-5.0746-2.272-5.0746-5.0746V16.033c0-2.8026,2.272-5.0746,5.0746-5.0746h53.9618 c2.8026,0,5.0746,2.272,5.0746,5.0746v34.8924C68.2687,53.728,65.9967,56,63.1941,56z"
       id="path6"
       style="stroke:#ffffff" />
    <line
       fill="none"
       stroke="#000000"
       stroke-width="2"
       stroke-linecap="round"
       stroke-linejoin="round"
       stroke-miterlimit="10"
       x1="7.2132"
       y1="48.4924"
       x2="65.2132"
       y2="48.4924"
       id="line8"
       style="stroke:#ffffff" />
    <path
       fill="none"
       stroke="#000000"
       stroke-width="2"
       stroke-linecap="round"
       stroke-linejoin="round"
       stroke-miterlimit="10"
       d="M43.1833,60.9583c0,4.9583,8.8401,7.0417,8.8401,7.0417H36.4029h-0.3795H20.4029c0,0,8.8401-2.0833,8.8401-7.0417"
       id="path10"
       style="stroke:#ffffff" />
  </g>
</svg>
